# xmcd CD database file
#
# Track frame offsets:
#	150
#	10082
#	22306
#	31941
#	42850
#	55310
#	81382
#	91571
#	100621
#	110208
#	123915
#	135184
#	150484
#
# Disc length: 2139 seconds
#
# Revision: 2
# Processed by: cddbd v1.4PL0 Copyright (c) Steve Scherf et al.
# Submitted via: CDex 1.40Beta4
#
DISCID=9608590d
DTITLE=Hate Society - Hell's your Place
DYEAR=2001
DGENRE=Country
TTITLE0=One day
TTITLE1=Svastica flies again
TTITLE2=Boots in your face
TTITLE3=Gratefull man
TTITLE4=Burning cross
TTITLE5=Don't fight each other
TTITLE6=Thanks for being there
TTITLE7=Bad song
TTITLE8=Hell's your place
TTITLE9=Hang 'em high
TTITLE10=Take part of it
TTITLE11=Reality
TTITLE12=Showdown
EXTD=YEAR: 2001 ? ID3G:   2
EXTT0=
EXTT1=
EXTT2=
EXTT3=
EXTT4=
EXTT5=
EXTT6=
EXTT7=
EXTT8=
EXTT9=
EXTT10=
EXTT11=
EXTT12=
PLAYORDER=
